<!-- Generated by IcoMoon.io -->
<svg version="1.1" xmlns="http://www.w3.org/2000/svg" width="34" height="32" viewBox="0 0 34 32">
<title>bank</title>
<path fill="#fff" d="M34.067 6.933v1.133c0 0.15-0.060 0.294-0.166 0.401s-0.25 0.166-0.401 0.166h-1.7v0.85c0 0.469-0.381 0.85-0.85 0.85h-27.767c-0.469 0-0.85-0.381-0.85-0.85v-0.85h-1.7c-0.15 0-0.294-0.060-0.401-0.166s-0.166-0.25-0.166-0.401v-1.133c0-0.112 0.033-0.222 0.096-0.315s0.151-0.166 0.254-0.209l16.433-6.233c0.139-0.057 0.295-0.057 0.433 0l16.433 6.233c0.104 0.043 0.192 0.115 0.254 0.209s0.096 0.203 0.096 0.315v0zM32.367 28.467h-30.6c-0.939 0-1.7 0.761-1.7 1.7v1.133c0 0.15 0.060 0.294 0.166 0.401s0.25 0.166 0.401 0.166h32.867c0.15 0 0.294-0.060 0.401-0.166s0.166-0.25 0.166-0.401v-1.133c0-0.939-0.761-1.7-1.7-1.7zM5.733 11.467v13.6h-2.55c-0.469 0-0.85 0.381-0.85 0.85v1.417h29.467v-1.417c0-0.469-0.381-0.85-0.85-0.85h-2.55v-13.6h-4.533v13.6h-4.533v-13.6h-4.533v13.6h-4.533v-13.6h-4.533z"></path>
</svg>
